<?xml version="1.0" encoding="UTF-8"?>
<!DOCTYPE svg PUBLIC "-//W3C//DTD SVG 1.1//EN" "http://www.w3.org/Graphics/SVG/1.1/DTD/svg11.dtd">
<svg xmlns="http://www.w3.org/2000/svg" version="1.1" width="411px" height="303px" style="shape-rendering:geometricPrecision; text-rendering:geometricPrecision; image-rendering:optimizeQuality; fill-rule:evenodd; clip-rule:evenodd" xmlns:xlink="http://www.w3.org/1999/xlink">
<g><path style="opacity:1" fill="#fdfefe" d="M -0.5,-0.5 C 136.5,-0.5 273.5,-0.5 410.5,-0.5C 410.5,100.5 410.5,201.5 410.5,302.5C 273.5,302.5 136.5,302.5 -0.5,302.5C -0.5,201.5 -0.5,100.5 -0.5,-0.5 Z"/></g>
<g><path style="opacity:1" fill="#f1fbfd" d="M 156.5,96.5 C 155.753,99.3615 154.086,101.362 151.5,102.5C 149.621,102.607 149.288,102.107 150.5,101C 148.988,90.2616 147.821,79.4283 147,68.5C 129.898,69.8243 112.731,69.8243 95.5,68.5C 113.308,67.988 130.974,67.1546 148.5,66C 147.839,46.5646 147.172,27.0646 146.5,7.5C 141.889,6.38974 137.222,6.22307 132.5,7C 132.957,7.41395 133.291,7.91395 133.5,8.5C 131.865,9.68084 130.198,9.68084 128.5,8.5C 127.064,10.8218 125.23,11.4885 123,10.5C 118.861,14.9275 113.694,16.5942 107.5,15.5C 110.567,10.9617 114.9,8.46168 120.5,8C 120.167,7.66667 119.833,7.33333 119.5,7C 128.897,5.47058 138.563,4.97058 148.5,5.5C 150.041,35.7473 150.374,65.7473 149.5,95.5C 151.806,95.9926 154.139,96.3259 156.5,96.5 Z"/></g>
<g><path style="opacity:1" fill="#f1fbfd" d="M 102.5,15.5 C 101.319,18.669 98.9856,20.3356 95.5,20.5C 95.7989,22.604 95.4656,24.604 94.5,26.5C 89.9407,29.1043 86.2741,32.6043 83.5,37C 81.5812,38.9338 80.0812,38.7671 79,36.5C 78.5291,38.2464 77.8624,39.913 77,41.5C 76.2971,48.6998 76.4638,55.8665 77.5,63C 76.1335,67.3988 75.4669,71.8988 75.5,76.5C 75.5,90.1667 75.5,103.833 75.5,117.5C 73.9898,100.568 73.3231,83.5681 73.5,66.5C 74.3092,56.5469 74.8092,46.5469 75,36.5C 75.1545,33.4754 76.6545,31.8087 79.5,31.5C 79.5,30.1667 79.5,28.8333 79.5,27.5C 82.8264,26.1799 86.1598,24.8465 89.5,23.5C 89.5,22.5 89.5,21.5 89.5,20.5C 94.2636,19.8035 98.597,18.1369 102.5,15.5 Z"/></g>
<g><path style="opacity:1" fill="#e5f6fc" d="M 303.5,47.5 C 303.791,48.6491 304.624,49.3158 306,49.5C 318.414,51.9617 329.581,56.9617 339.5,64.5C 339.586,65.4959 339.252,66.3292 338.5,67C 317.833,67.6667 297.167,67.6667 276.5,67C 277.966,65.4478 278.966,63.6145 279.5,61.5C 282.752,60.351 284.585,58.0176 285,54.5C 287.833,53 290,50.8333 291.5,48C 295.486,47.5012 299.486,47.3345 303.5,47.5 Z"/></g>
<g><path style="opacity:1" fill="#ecf8fb" d="M 67.5,123.5 C 66.5655,122.432 66.2322,121.099 66.5,119.5C 55.1667,119.5 43.8333,119.5 32.5,119.5C 31.8389,137.963 32.8389,156.296 35.5,174.5C 35.0431,175.298 34.3764,175.631 33.5,175.5C 33.1231,173.742 32.4565,172.075 31.5,170.5C 31.8606,159.677 31.8606,148.677 31.5,137.5C 31.6667,127.167 31.8333,116.833 32,106.5C 32.6976,103.996 33.5309,101.663 34.5,99.5C 33.8354,105.477 33.502,111.477 33.5,117.5C 43.8548,117.832 54.1881,117.499 64.5,116.5C 64.8076,115.692 65.3076,115.025 66,114.5C 66.4995,108.175 66.6662,101.842 66.5,95.5C 66.6663,88.4921 66.4996,81.4921 66,74.5C 64.98,73.1095 64.1466,71.6095 63.5,70C 58.6449,68.8356 54.3115,69.669 50.5,72.5C 49.8333,72.1667 49.1667,71.8333 48.5,71.5C 47.6858,73.7662 47.1858,76.0995 47,78.5C 45.0414,79.7481 43.5414,81.4148 42.5,83.5C 44.0396,84.5321 44.5396,85.8654 44,87.5C 42.1978,88.7893 41.0312,90.4559 40.5,92.5C 39.1667,93.5 37.8333,94.5 36.5,95.5C 37.433,86.1971 40.433,77.6971 45.5,70C 46.8333,69.3333 48.1667,68.6667 49.5,68C 48.5697,66.6047 48.5697,65.1047 49.5,63.5C 52.3221,59.8721 55.1554,56.2054 58,52.5C 58.4935,50.8659 58.6602,49.1992 58.5,47.5C 60.1667,47.5 61.8333,47.5 63.5,47.5C 63.6303,43.4885 65.2969,42.3218 68.5,44C 67.5347,70.2092 67.2013,96.7092 67.5,123.5 Z"/></g>
<g><path style="opacity:1" fill="#effbfd" d="M 303.5,47.5 C 299.486,47.3345 295.486,47.5012 291.5,48C 290,50.8333 287.833,53 285,54.5C 284.585,58.0176 282.752,60.351 279.5,61.5C 278.966,63.6145 277.966,65.4478 276.5,67C 297.167,67.6667 317.833,67.6667 338.5,67C 339.252,66.3292 339.586,65.4959 339.5,64.5C 341.582,64.6243 343.082,65.6243 344,67.5C 344.718,66.5494 345.551,66.3828 346.5,67C 348.865,68.7895 350.532,70.9561 351.5,73.5C 351.217,74.2891 350.717,74.9558 350,75.5C 347.331,72.8358 344.164,71.0024 340.5,70C 317.848,68.4619 295.181,68.2952 272.5,69.5C 274.92,67.1224 276.087,64.1224 276,60.5C 280.411,58.9801 283.077,55.9801 284,51.5C 286.376,50.6242 287.876,48.9575 288.5,46.5C 291.11,45.8839 293.777,45.5505 296.5,45.5C 299.269,45.5286 301.603,46.1952 303.5,47.5 Z"/></g>
<g><path style="opacity:1" fill="#e5f7fd" d="M 351.5,73.5 C 354.496,74.4744 356.163,76.4744 356.5,79.5C 357.873,79.3433 359.207,79.51 360.5,80C 365.342,84.2095 369.842,88.7095 374,93.5C 375.182,136.639 375.182,179.639 374,222.5C 373.329,223.252 372.496,223.586 371.5,223.5C 371.783,222.711 372.283,222.044 373,221.5C 373.499,216.845 373.666,212.179 373.5,207.5C 373.823,194.254 373.489,181.087 372.5,168C 359.79,168.087 347.123,168.087 334.5,168C 333.62,169.356 333.286,170.856 333.5,172.5C 333.5,173.5 333.5,174.5 333.5,175.5C 333.167,175.5 332.833,175.5 332.5,175.5C 331.503,175.53 330.836,175.03 330.5,174C 331.167,171.667 331.833,169.333 332.5,167C 330.85,163.077 330.017,158.911 330,154.5C 327.082,151.106 325.916,147.439 326.5,143.5C 327.75,143.577 328.583,144.244 329,145.5C 330.901,152.187 332.735,158.854 334.5,165.5C 340.358,165.822 346.025,165.489 351.5,164.5C 351.187,151.754 351.52,139.087 352.5,126.5C 352.5,124.167 352.5,121.833 352.5,119.5C 337.833,119.5 323.167,119.5 308.5,119.5C 308.615,121.947 309.615,123.947 311.5,125.5C 310.226,126.189 310.226,127.023 311.5,128C 310.956,128.717 310.289,129.217 309.5,129.5C 309.923,127.219 309.256,125.552 307.5,124.5C 307.5,124.167 307.5,123.833 307.5,123.5C 307.261,121.533 307.594,119.699 308.5,118C 322.829,117.5 337.163,117.333 351.5,117.5C 351.5,113.5 351.5,109.5 351.5,105.5C 346.156,105.666 340.823,105.499 335.5,105C 334.584,104.626 333.75,104.126 333,103.5C 331.983,97.3363 331.816,91.0029 332.5,84.5C 327.833,84.5 323.167,84.5 318.5,84.5C 319.126,80.6246 317.459,78.7913 313.5,79C 313.968,77.178 314.301,75.0113 314.5,72.5C 311.728,71.6285 309.062,71.6285 306.5,72.5C 306.097,77.302 305.097,81.9687 303.5,86.5C 300.479,87.0049 297.479,87.6716 294.5,88.5C 293.287,88.7472 292.62,89.4138 292.5,90.5C 287.3,94.0744 284.967,99.0744 285.5,105.5C 282.112,104.13 278.779,103.797 275.5,104.5C 275.5,93.1667 275.5,81.8333 275.5,70.5C 274.167,70.5 272.833,70.5 271.5,70.5C 271.5,86.1667 271.5,101.833 271.5,117.5C 277.5,117.5 283.5,117.5 289.5,117.5C 290.87,117.856 291.87,118.69 292.5,120C 290.572,125.761 286.572,128.594 280.5,128.5C 277.026,130.404 274.192,133.071 272,136.5C 271.079,122.349 270.579,108.182 270.5,94C 270.502,85.4716 271.169,77.3049 272.5,69.5C 295.181,68.2952 317.848,68.4619 340.5,70C 344.164,71.0024 347.331,72.8358 350,75.5C 350.717,74.9558 351.217,74.2891 351.5,73.5 Z"/></g>
<g><path style="opacity:1" fill="#e5f7fe" d="M 66.5,95.5 C 65.5,95.5 64.5,95.5 63.5,95.5C 63.5,94.5 63.5,93.5 63.5,92.5C 55.8333,92.5 48.1667,92.5 40.5,92.5C 41.0312,90.4559 42.1978,88.7893 44,87.5C 44.5396,85.8654 44.0396,84.5321 42.5,83.5C 43.5414,81.4148 45.0414,79.7481 47,78.5C 47.1858,76.0995 47.6858,73.7662 48.5,71.5C 49.1667,71.8333 49.8333,72.1667 50.5,72.5C 54.3115,69.669 58.6449,68.8356 63.5,70C 64.1466,71.6095 64.98,73.1095 66,74.5C 66.4996,81.4921 66.6663,88.4921 66.5,95.5 Z"/></g>
<g><path style="opacity:1" fill="#e5f7fe" d="M 151.5,102.5 C 150.4,103.558 149.066,104.392 147.5,105C 145.016,107.284 144.849,109.784 147,112.5C 147.499,117.489 147.666,122.489 147.5,127.5C 144.925,128.568 142.758,130.235 141,132.5C 140.148,136.189 139.315,139.856 138.5,143.5C 136.588,147.194 136.088,151.194 137,155.5C 137.816,156.823 138.983,157.489 140.5,157.5C 141.007,160.431 142.007,163.098 143.5,165.5C 143.427,167.027 144.094,168.027 145.5,168.5C 145.921,172.742 145.254,176.742 143.5,180.5C 142.504,180.414 141.671,180.748 141,181.5C 139.956,186.957 139.789,192.291 140.5,197.5C 135.702,197.474 130.702,197.641 125.5,198C 120.272,201.118 114.605,203.118 108.5,204C 105.828,206.951 102.495,208.117 98.5,207.5C 99.8005,206.118 100.634,204.452 101,202.5C 101.955,191.069 101.622,179.736 100,168.5C 99.0862,169.654 98.2529,169.487 97.5,168C 90.1742,167.5 82.8409,167.334 75.5,167.5C 75.5,167.167 75.5,166.833 75.5,166.5C 84.5513,166.125 93.218,165.125 101.5,163.5C 102.766,148.819 102.766,134.153 101.5,119.5C 93.1667,119.5 84.8333,119.5 76.5,119.5C 76.7373,120.791 76.404,121.791 75.5,122.5C 75.5,120.833 75.5,119.167 75.5,117.5C 83.84,117.666 92.1733,117.5 100.5,117C 101,116.5 101.5,116 102,115.5C 102.667,102.833 102.667,90.1667 102,77.5C 99.9602,75.6469 97.6269,74.3136 95,73.5C 94.701,69.193 94.5343,65.0263 94.5,61C 89.5111,60.5007 84.5111,60.3341 79.5,60.5C 80.2586,66.51 78.9252,71.8434 75.5,76.5C 75.4669,71.8988 76.1335,67.3988 77.5,63C 76.4638,55.8665 76.2971,48.6998 77,41.5C 77.8624,39.913 78.5291,38.2464 79,36.5C 80.0812,38.7671 81.5812,38.9338 83.5,37C 86.2741,32.6043 89.9407,29.1043 94.5,26.5C 95.4656,24.604 95.7989,22.604 95.5,20.5C 98.9856,20.3356 101.319,18.669 102.5,15.5C 104.167,15.5 105.833,15.5 107.5,15.5C 113.694,16.5942 118.861,14.9275 123,10.5C 125.23,11.4885 127.064,10.8218 128.5,8.5C 130.198,9.68084 131.865,9.68084 133.5,8.5C 133.291,7.91395 132.957,7.41395 132.5,7C 137.222,6.22307 141.889,6.38974 146.5,7.5C 147.172,27.0646 147.839,46.5646 148.5,66C 130.974,67.1546 113.308,67.988 95.5,68.5C 112.731,69.8243 129.898,69.8243 147,68.5C 147.821,79.4283 148.988,90.2616 150.5,101C 149.288,102.107 149.621,102.607 151.5,102.5 Z"/></g>
<g><path style="opacity:1" fill="#e6f7fe" d="M 262.5,165.5 C 262.5,163.5 262.5,161.5 262.5,159.5C 262.5,157.167 262.5,154.833 262.5,152.5C 262.5,141.5 262.5,130.5 262.5,119.5C 255.5,119.5 248.5,119.5 241.5,119.5C 241.728,131.859 241.395,144.193 240.5,156.5C 234.585,157.148 228.752,157.148 223,156.5C 220.005,159.265 216.505,160.098 212.5,159C 213.535,155.223 214.035,151.389 214,147.5C 211.577,146.288 209.244,144.954 207,143.5C 206.261,145.221 205.427,146.887 204.5,148.5C 203.5,147.167 202.5,145.833 201.5,144.5C 200.817,144.863 200.15,145.196 199.5,145.5C 197.882,146.48 195.882,146.48 193.5,145.5C 192.299,143.091 190.633,141.091 188.5,139.5C 187.559,137.95 186.893,136.284 186.5,134.5C 186.445,131.386 185.112,129.052 182.5,127.5C 180.677,121.763 181.51,116.43 185,111.5C 186.494,106.474 185.327,102.308 181.5,99C 176.563,96.6894 171.563,94.6894 166.5,93C 162.9,91.9271 159.9,92.7605 157.5,95.5C 157.131,93.5588 156.464,91.7255 155.5,90C 156.833,62.3333 156.833,34.6667 155.5,7C 156.944,5.93628 158.611,5.43628 160.5,5.5C 170.135,6.40894 179.468,8.5756 188.5,12C 189.337,13.0113 189.67,14.1779 189.5,15.5C 190.873,15.3433 192.207,15.51 193.5,16C 196.652,19.154 200.319,21.4873 204.5,23C 212.544,31.1878 221.877,37.6878 232.5,42.5C 233.386,43.325 233.719,44.325 233.5,45.5C 237.546,46.0129 241.546,46.8462 245.5,48C 249.833,51 253.5,54.6667 256.5,59C 258.025,60.0086 259.692,60.5086 261.5,60.5C 261.64,62.1238 260.973,63.2904 259.5,64C 261.604,65.693 263.104,67.8596 264,70.5C 264.154,102.334 263.654,134.001 262.5,165.5 Z"/></g>
<g><path style="opacity:1" fill="#ceedfc" d="M 75.5,117.5 C 75.5,103.833 75.5,90.1667 75.5,76.5C 78.9252,71.8434 80.2586,66.51 79.5,60.5C 84.5111,60.3341 89.5111,60.5007 94.5,61C 94.5343,65.0263 94.701,69.193 95,73.5C 97.6269,74.3136 99.9602,75.6469 102,77.5C 102.667,90.1667 102.667,102.833 102,115.5C 101.5,116 101,116.5 100.5,117C 92.1733,117.5 83.84,117.666 75.5,117.5 Z"/></g>
<g><path style="opacity:1" fill="#ceeefb" d="M 244.5,70.5 C 250.093,70.1934 255.593,70.5268 261,71.5C 262.359,86.7973 262.859,102.131 262.5,117.5C 257.743,117.996 253.243,117.33 249,115.5C 246.901,116.287 244.734,116.62 242.5,116.5C 241.72,102.865 241.22,89.1985 241,75.5C 239.812,74.4366 239.312,73.1033 239.5,71.5C 241.415,71.7845 243.081,71.4511 244.5,70.5 Z"/></g>
<g><path style="opacity:1" fill="#bce6fc" d="M 251.5,84.5 C 254.833,84.5 258.167,84.5 261.5,84.5C 261.5,88.1667 261.5,91.8333 261.5,95.5C 259.234,95.1412 257.401,95.8078 256,97.5C 254.599,95.8078 252.766,95.1412 250.5,95.5C 250.552,91.8019 250.886,88.1352 251.5,84.5 Z"/></g>
<g><path style="opacity:1" fill="#4e3652" d="M 306.5,90.5 C 308.398,93.6606 311.232,95.3272 315,95.5C 315.81,99.3575 315.643,103.024 314.5,106.5C 309.773,104.35 308.44,100.85 310.5,96C 307.823,95.7506 305.49,94.7506 303.5,93C 300.406,92.3482 297.406,92.6815 294.5,94C 293.359,94.7412 293.359,95.5745 294.5,96.5C 292.696,97.7681 290.696,98.4348 288.5,98.5C 288.263,99.791 288.596,100.791 289.5,101.5C 288.722,102.156 288.056,102.989 287.5,104C 288.707,105.3 289.374,106.8 289.5,108.5C 288.167,107.5 286.833,106.5 285.5,105.5C 284.967,99.0744 287.3,94.0744 292.5,90.5C 297.2,89.443 301.866,89.443 306.5,90.5 Z"/></g>
<g><path style="opacity:1" fill="#522e4e" d="M 314.5,106.5 C 314.443,107.609 314.11,108.609 313.5,109.5C 312.833,110.167 312.167,110.833 311.5,111.5C 310.752,108.83 309.752,106.163 308.5,103.5C 308.8,100.756 307.633,99.0894 305,98.5C 299.642,98.8794 294.475,99.8794 289.5,101.5C 288.596,100.791 288.263,99.791 288.5,98.5C 290.696,98.4348 292.696,97.7681 294.5,96.5C 293.359,95.5745 293.359,94.7412 294.5,94C 297.406,92.6815 300.406,92.3482 303.5,93C 305.49,94.7506 307.823,95.7506 310.5,96C 308.44,100.85 309.773,104.35 314.5,106.5 Z"/></g>
<g><path style="opacity:1" fill="#5e2c48" d="M 308.5,103.5 C 307.089,102.092 305.423,101.092 303.5,100.5C 300.53,101.232 297.53,101.399 294.5,101C 293.667,101.833 292.833,102.667 292,103.5C 292.053,106.675 291.22,109.342 289.5,111.5C 289.5,110.5 289.5,109.5 289.5,108.5C 289.374,106.8 288.707,105.3 287.5,104C 288.056,102.989 288.722,102.156 289.5,101.5C 294.475,99.8794 299.642,98.8794 305,98.5C 307.633,99.0894 308.8,100.756 308.5,103.5 Z"/></g>
<g><path style="opacity:1" fill="#cfedfc" d="M 40.5,92.5 C 48.1667,92.5 55.8333,92.5 63.5,92.5C 63.5,93.5 63.5,94.5 63.5,95.5C 64.5,95.5 65.5,95.5 66.5,95.5C 66.6662,101.842 66.4995,108.175 66,114.5C 65.3076,115.025 64.8076,115.692 64.5,116.5C 54.1881,117.499 43.8548,117.832 33.5,117.5C 33.502,111.477 33.8354,105.477 34.5,99.5C 35.1667,98.1667 35.8333,96.8333 36.5,95.5C 37.8333,94.5 39.1667,93.5 40.5,92.5 Z"/></g>
<g><path style="opacity:1" fill="#3e3d51" d="M 182.5,127.5 C 181.5,127.5 180.5,127.5 179.5,127.5C 178.167,127.5 176.833,127.5 175.5,127.5C 174.082,125.692 172.082,125.025 169.5,125.5C 168.272,121.848 169.272,118.848 172.5,116.5C 176.927,111.936 175.927,108.769 169.5,107C 168.344,102.899 167.177,102.732 166,106.5C 164.708,105.209 163.542,105.209 162.5,106.5C 159.952,107.692 157.618,109.358 155.5,111.5C 157.099,113.912 158.432,116.412 159.5,119C 159.172,121.829 158.172,124.329 156.5,126.5C 153.43,126.368 150.43,126.701 147.5,127.5C 147.666,122.489 147.499,117.489 147,112.5C 144.849,109.784 145.016,107.284 147.5,105C 149.066,104.392 150.4,103.558 151.5,102.5C 154.086,101.362 155.753,99.3615 156.5,96.5C 157.167,96.5 157.5,96.1667 157.5,95.5C 159.9,92.7605 162.9,91.9271 166.5,93C 171.563,94.6894 176.563,96.6894 181.5,99C 185.327,102.308 186.494,106.474 185,111.5C 181.51,116.43 180.677,121.763 182.5,127.5 Z"/></g>
<g><path style="opacity:1" fill="#d5e1f4" d="M 306.5,90.5 C 310.772,91.4897 315.106,92.1563 319.5,92.5C 317.999,97.6733 317.166,103.007 317,108.5C 316.667,108.167 316.333,107.833 316,107.5C 315.583,108.756 314.75,109.423 313.5,109.5C 314.11,108.609 314.443,107.609 314.5,106.5C 315.643,103.024 315.81,99.3575 315,95.5C 311.232,95.3272 308.398,93.6606 306.5,90.5 Z"/></g>
<g><path style="opacity:1" fill="#d1edfb" d="M 307.5,123.5 C 307.167,123.5 306.833,123.5 306.5,123.5C 305.697,119.831 306.864,117.164 310,115.5C 310.41,114.099 310.91,112.766 311.5,111.5C 312.167,110.833 312.833,110.167 313.5,109.5C 314.75,109.423 315.583,108.756 316,107.5C 316.333,107.833 316.667,108.167 317,108.5C 317.166,103.007 317.999,97.6733 319.5,92.5C 315.106,92.1563 310.772,91.4897 306.5,90.5C 301.866,89.443 297.2,89.443 292.5,90.5C 292.62,89.4138 293.287,88.7472 294.5,88.5C 297.479,87.6716 300.479,87.0049 303.5,86.5C 305.097,81.9687 306.097,77.302 306.5,72.5C 309.062,71.6285 311.728,71.6285 314.5,72.5C 314.301,75.0113 313.968,77.178 313.5,79C 317.459,78.7913 319.126,80.6246 318.5,84.5C 323.167,84.5 327.833,84.5 332.5,84.5C 331.816,91.0029 331.983,97.3363 333,103.5C 333.75,104.126 334.584,104.626 335.5,105C 340.823,105.499 346.156,105.666 351.5,105.5C 351.5,109.5 351.5,113.5 351.5,117.5C 337.163,117.333 322.829,117.5 308.5,118C 307.594,119.699 307.261,121.533 307.5,123.5 Z"/></g>
<g><path style="opacity:1" fill="#d1eef9" d="M 285.5,105.5 C 286.833,106.5 288.167,107.5 289.5,108.5C 289.5,109.5 289.5,110.5 289.5,111.5C 289.5,112.167 289.5,112.833 289.5,113.5C 289.5,114.833 289.5,116.167 289.5,117.5C 283.5,117.5 277.5,117.5 271.5,117.5C 271.5,101.833 271.5,86.1667 271.5,70.5C 272.833,70.5 274.167,70.5 275.5,70.5C 275.5,81.8333 275.5,93.1667 275.5,104.5C 278.779,103.797 282.112,104.13 285.5,105.5 Z"/></g>
<g><path style="opacity:1" fill="#ddbac2" d="M 172.5,116.5 C 172.815,114.774 172.981,113.107 173,111.5C 170.738,108.793 168.071,107.793 165,108.5C 164.583,107.244 163.75,106.577 162.5,106.5C 163.542,105.209 164.708,105.209 166,106.5C 167.177,102.732 168.344,102.899 169.5,107C 175.927,108.769 176.927,111.936 172.5,116.5 Z"/></g>
<g><path style="opacity:1" fill="#c47184" d="M 308.5,103.5 C 309.752,106.163 310.752,108.83 311.5,111.5C 310.91,112.766 310.41,114.099 310,115.5C 306.864,117.164 305.697,119.831 306.5,123.5C 305.878,126.776 303.878,128.109 300.5,127.5C 299.135,125.14 297.135,123.473 294.5,122.5C 294.376,118.617 292.709,115.617 289.5,113.5C 289.5,112.833 289.5,112.167 289.5,111.5C 291.22,109.342 292.053,106.675 292,103.5C 292.833,102.667 293.667,101.833 294.5,101C 297.53,101.399 300.53,101.232 303.5,100.5C 305.423,101.092 307.089,102.092 308.5,103.5 Z"/></g>
<g><path style="opacity:1" fill="#d17080" d="M 293.5,103.5 C 297.182,103.335 300.848,103.501 304.5,104C 309.092,107.376 309.592,111.209 306,115.5C 304.523,114.556 303.523,113.223 303,111.5C 296.897,113.887 297.064,115.554 303.5,116.5C 303.719,117.675 303.386,118.675 302.5,119.5C 299.457,117.385 296.124,116.052 292.5,115.5C 292.237,111.4 292.57,107.4 293.5,103.5 Z"/></g>
<g><path style="opacity:1" fill="#d4edf5" d="M 352.5,126.5 C 351.566,125.432 351.232,124.099 351.5,122.5C 341.66,121.316 331.827,121.316 322,122.5C 320.635,122.156 319.468,121.489 318.5,120.5C 317.019,121.48 315.685,122.647 314.5,124C 315.784,124.684 316.951,124.517 318,123.5C 319.188,124.563 319.688,125.897 319.5,127.5C 323.552,128.382 326.219,130.882 327.5,135C 330.869,144.698 333.536,154.532 335.5,164.5C 340.833,164.5 346.167,164.5 351.5,164.5C 346.025,165.489 340.358,165.822 334.5,165.5C 332.735,158.854 330.901,152.187 329,145.5C 328.583,144.244 327.75,143.577 326.5,143.5C 326.737,139.59 325.904,135.923 324,132.5C 320.312,129.241 316.146,126.908 311.5,125.5C 309.615,123.947 308.615,121.947 308.5,119.5C 323.167,119.5 337.833,119.5 352.5,119.5C 352.5,121.833 352.5,124.167 352.5,126.5 Z"/></g>
<g><path style="opacity:1" fill="#d1edf8" d="M 67.5,123.5 C 67.5,135.5 67.5,147.5 67.5,159.5C 67.1667,159.5 66.8333,159.5 66.5,159.5C 66.6665,148.828 66.4998,138.161 66,127.5C 65.044,126.421 64.2106,125.255 63.5,124C 56.5857,123.189 49.7524,123.355 43,124.5C 39.1868,121.041 36.5201,122.041 35,127.5C 34.8186,136.411 34.3186,145.245 33.5,154C 34.7797,156.132 34.7797,158.298 33.5,160.5C 34.8955,162.733 36.7289,164.399 39,165.5C 47.1432,164.743 55.3098,164.243 63.5,164C 64.6906,163.302 65.6906,162.469 66.5,161.5C 66.7254,163.716 65.8921,165.383 64,166.5C 54.8831,165.431 45.7164,165.598 36.5,167C 46.2138,167.192 55.8805,167.692 65.5,168.5C 65.8156,173.869 65.8156,179.202 65.5,184.5C 64.9628,185.741 64.2961,186.908 63.5,188C 63.6667,188.5 63.8333,189 64,189.5C 65.049,187.893 66.549,187.227 68.5,187.5C 68.5,187.833 68.5,188.167 68.5,188.5C 66.6675,189.248 65.0009,190.248 63.5,191.5C 58.9063,196.084 55.573,201.417 53.5,207.5C 53.5,198.833 53.5,190.167 53.5,181.5C 52.5,181.5 51.5,181.5 50.5,181.5C 50.5,184.167 50.5,186.833 50.5,189.5C 49.5,188.833 48.5,188.167 47.5,187.5C 44.8372,182.839 40.8372,180.172 35.5,179.5C 35.3893,178.883 35.056,178.383 34.5,178C 32.5273,177.505 30.5273,177.338 28.5,177.5C 28.2591,180.034 29.2591,181.7 31.5,182.5C 31.5,183.167 31.5,183.833 31.5,184.5C 29.4884,185.014 27.4884,185.18 25.5,185C 27.3398,182.174 28.0065,179.007 27.5,175.5C 29.5,175.5 31.5,175.5 33.5,175.5C 34.3764,175.631 35.0431,175.298 35.5,174.5C 32.8389,156.296 31.8389,137.963 32.5,119.5C 43.8333,119.5 55.1667,119.5 66.5,119.5C 66.2322,121.099 66.5655,122.432 67.5,123.5 Z"/></g>
<g><path style="opacity:1" fill="#ceedfd" d="M 352.5,126.5 C 351.52,139.087 351.187,151.754 351.5,164.5C 346.167,164.5 340.833,164.5 335.5,164.5C 333.536,154.532 330.869,144.698 327.5,135C 326.219,130.882 323.552,128.382 319.5,127.5C 319.688,125.897 319.188,124.563 318,123.5C 316.951,124.517 315.784,124.684 314.5,124C 315.685,122.647 317.019,121.48 318.5,120.5C 319.468,121.489 320.635,122.156 322,122.5C 331.827,121.316 341.66,121.316 351.5,122.5C 351.232,124.099 351.566,125.432 352.5,126.5 Z"/></g>
<g><path style="opacity:1" fill="#ceedfc" d="M 75.5,166.5 C 75.5,151.833 75.5,137.167 75.5,122.5C 76.404,121.791 76.7373,120.791 76.5,119.5C 84.8333,119.5 93.1667,119.5 101.5,119.5C 102.766,134.153 102.766,148.819 101.5,163.5C 93.218,165.125 84.5513,166.125 75.5,166.5 Z"/></g>
<g><path style="opacity:1" fill="#f2bcbf" d="M 162.5,106.5 C 163.75,106.577 164.583,107.244 165,108.5C 168.071,107.793 170.738,108.793 173,111.5C 172.981,113.107 172.815,114.774 172.5,116.5C 169.272,118.848 168.272,121.848 169.5,125.5C 168.674,128.485 167.341,131.151 165.5,133.5C 164.448,133.649 163.448,133.483 162.5,133C 160.584,130.591 158.584,128.424 156.5,126.5C 158.172,124.329 159.172,121.829 159.5,119C 158.432,116.412 157.099,113.912 155.5,111.5C 157.618,109.358 159.952,107.692 162.5,106.5 Z"/></g>
<g><path style="opacity:1" fill="#d5f6fb" d="M 294.5,122.5 C 294.796,124.403 295.463,126.07 296.5,127.5C 298.274,130.624 299.607,133.958 300.5,137.5C 298.026,133.504 295.36,129.504 292.5,125.5C 292.453,123.962 293.12,122.962 294.5,122.5 Z"/></g>
<g><path style="opacity:1" fill="#6294b7" d="M 294.5,122.5 C 297.135,123.473 299.135,125.14 300.5,127.5C 299.167,127.5 297.833,127.5 296.5,127.5C 295.463,126.07 294.796,124.403 294.5,122.5 Z"/></g>
<g><path style="opacity:1" fill="#cdeefc" d="M 66.5,159.5 C 66.5,160.167 66.5,160.833 66.5,161.5C 65.6906,162.469 64.6906,163.302 63.5,164C 55.3098,164.243 47.1432,164.743 39,165.5C 36.7289,164.399 34.8955,162.733 33.5,160.5C 34.7797,158.298 34.7797,156.132 33.5,154C 34.3186,145.245 34.8186,136.411 35,127.5C 36.5201,122.041 39.1868,121.041 43,124.5C 49.7524,123.355 56.5857,123.189 63.5,124C 64.2106,125.255 65.044,126.421 66,127.5C 66.4998,138.161 66.6665,148.828 66.5,159.5 Z"/></g>
<g><path style="opacity:1" fill="#effafc" d="M 394.5,129.5 C 391.169,127.702 387.502,127.036 383.5,127.5C 383.5,139.833 383.5,152.167 383.5,164.5C 389.084,166.295 395.084,167.129 401.5,167C 395.175,167.5 388.842,167.666 382.5,167.5C 382.698,175.534 382.365,183.534 381.5,191.5C 381.382,183.473 380.715,175.307 379.5,167C 380.812,160.572 381.479,153.906 381.5,147C 380.952,133.497 380.785,119.997 381,106.5C 381.915,105.672 382.581,104.672 383,103.5C 384.781,108.746 387.781,113.08 392,116.5C 392.595,117.899 392.428,119.232 391.5,120.5C 393.264,123.215 394.264,126.215 394.5,129.5 Z"/></g>
<g><path style="opacity:1" fill="#39abe0" d="M 156.5,126.5 C 157.167,128.167 157.833,129.833 158.5,131.5C 147.993,127.162 141.993,130.662 140.5,142C 140.164,143.03 139.497,143.53 138.5,143.5C 139.315,139.856 140.148,136.189 141,132.5C 142.758,130.235 144.925,128.568 147.5,127.5C 150.43,126.701 153.43,126.368 156.5,126.5 Z"/></g>
<g><path style="opacity:1" fill="#2e7191" d="M 179.5,127.5 C 180.5,127.5 181.5,127.5 182.5,127.5C 185.112,129.052 186.445,131.386 186.5,134.5C 184.5,131.833 182.167,129.5 179.5,127.5 Z"/></g>
<g><path style="opacity:1" fill="#ddcddd" d="M 156.5,126.5 C 158.584,128.424 160.584,130.591 162.5,133C 163.448,133.483 164.448,133.649 165.5,133.5C 165.53,134.497 165.03,135.164 164,135.5C 162.357,134.685 160.857,133.685 159.5,132.5C 159.5,131.833 159.167,131.5 158.5,131.5C 157.833,129.833 157.167,128.167 156.5,126.5 Z"/></g>
<g><path style="opacity:1" fill="#0baef9" d="M 175.5,127.5 C 176.833,127.5 178.167,127.5 179.5,127.5C 182.167,129.5 184.5,131.833 186.5,134.5C 186.893,136.284 187.559,137.95 188.5,139.5C 188.664,142.817 189.664,145.817 191.5,148.5C 187.912,147.669 184.245,147.669 180.5,148.5C 179.5,148.5 178.5,148.5 177.5,148.5C 177.389,147.883 177.056,147.383 176.5,147C 169.842,146.5 163.175,146.334 156.5,146.5C 156.664,149.187 156.497,151.854 156,154.5C 154.644,155.38 153.144,155.714 151.5,155.5C 149.379,155.675 147.379,155.341 145.5,154.5C 143.718,152.313 141.552,151.98 139,153.5C 138.502,150.183 138.335,146.85 138.5,143.5C 139.497,143.53 140.164,143.03 140.5,142C 141.993,130.662 147.993,127.162 158.5,131.5C 159.167,131.5 159.5,131.833 159.5,132.5C 159.876,137.181 162.209,138.515 166.5,136.5C 167.347,135.155 168.513,134.155 170,133.5C 170.495,131.527 170.662,129.527 170.5,127.5C 172.167,127.5 173.833,127.5 175.5,127.5 Z"/></g>
<g><path style="opacity:1" fill="#49a3d4" d="M 169.5,125.5 C 172.082,125.025 174.082,125.692 175.5,127.5C 173.833,127.5 172.167,127.5 170.5,127.5C 170.662,129.527 170.495,131.527 170,133.5C 168.513,134.155 167.347,135.155 166.5,136.5C 162.209,138.515 159.876,137.181 159.5,132.5C 160.857,133.685 162.357,134.685 164,135.5C 165.03,135.164 165.53,134.497 165.5,133.5C 167.341,131.151 168.674,128.485 169.5,125.5 Z"/></g>
<g><path style="opacity:1" fill="#3da6d7" d="M 306.5,123.5 C 306.833,123.5 307.167,123.5 307.5,123.5C 307.5,123.833 307.5,124.167 307.5,124.5C 307.5,136.167 307.5,147.833 307.5,159.5C 307.662,161.527 307.495,163.527 307,165.5C 306.802,163.618 306.302,161.952 305.5,160.5C 305.283,154.64 304.617,148.973 303.5,143.5C 303.025,141.216 302.025,139.216 300.5,137.5C 299.607,133.958 298.274,130.624 296.5,127.5C 297.833,127.5 299.167,127.5 300.5,127.5C 303.878,128.109 305.878,126.776 306.5,123.5 Z"/></g>
<g><path style="opacity:1" fill="#07adf9" d="M 299.5,129.5 C 302.188,130.024 303.688,131.691 304,134.5C 304.219,133.062 304.719,131.729 305.5,130.5C 306.66,134.459 306.827,138.459 306,142.5C 303.17,138.519 301.004,134.185 299.5,129.5 Z"/></g>
<g><path style="opacity:1" fill="#45b7da" d="M 188.5,139.5 C 190.633,141.091 192.299,143.091 193.5,145.5C 195.17,148.163 194.503,149.83 191.5,150.5C 191.5,149.833 191.5,149.167 191.5,148.5C 189.664,145.817 188.664,142.817 188.5,139.5 Z"/></g>
<g><path style="opacity:1" fill="#cfeefd" d="M 394.5,129.5 C 394.925,133.607 396.425,137.274 399,140.5C 399.495,142.473 399.662,144.473 399.5,146.5C 399.5,152.5 399.5,158.5 399.5,164.5C 394.167,164.5 388.833,164.5 383.5,164.5C 383.5,152.167 383.5,139.833 383.5,127.5C 387.502,127.036 391.169,127.702 394.5,129.5 Z"/></g>
<g><path style="opacity:1" fill="#2e95ce" d="M 177.5,148.5 C 170.814,148.473 164.148,148.139 157.5,147.5C 157.194,150.385 157.527,153.052 158.5,155.5C 158.5,155.833 158.5,156.167 158.5,156.5C 156.194,156.993 153.861,157.326 151.5,157.5C 151.5,156.833 151.5,156.167 151.5,155.5C 153.144,155.714 154.644,155.38 156,154.5C 156.497,151.854 156.664,149.187 156.5,146.5C 163.175,146.334 169.842,146.5 176.5,147C 177.056,147.383 177.389,147.883 177.5,148.5 Z"/></g>
<g><path style="opacity:1" fill="#c8edfc" d="M 262.5,152.5 C 262.5,154.833 262.5,157.167 262.5,159.5C 260.744,160.552 260.077,162.219 260.5,164.5C 237.5,164.5 214.5,164.5 191.5,164.5C 191.5,163.5 191.5,162.5 191.5,161.5C 195.824,161.073 200.158,160.739 204.5,160.5C 210.157,161.166 215.99,161.499 222,161.5C 229.903,161.268 237.736,160.602 245.5,159.5C 244.555,155.755 244.555,151.755 245.5,147.5C 246.873,147.657 248.207,147.49 249.5,147C 249.167,146.667 248.833,146.333 248.5,146C 250.034,141.477 251.367,136.811 252.5,132C 248.397,123.363 251.064,119.53 260.5,120.5C 261.672,124.513 261.505,128.513 260,132.5C 255.541,133.999 254.375,136.999 256.5,141.5C 257.192,140.975 257.692,140.308 258,139.5C 259,140.833 260,142.167 261,143.5C 261.181,146.695 261.681,149.695 262.5,152.5 Z"/></g>
<g><path style="opacity:1" fill="#41a4db" d="M 191.5,148.5 C 191.5,149.167 191.5,149.833 191.5,150.5C 191.5,151.167 191.167,151.5 190.5,151.5C 187.523,150.322 184.523,150.322 181.5,151.5C 180.596,150.791 180.263,149.791 180.5,148.5C 184.245,147.669 187.912,147.669 191.5,148.5 Z"/></g>
<g><path style="opacity:1" fill="#265077" d="M 177.5,148.5 C 178.5,148.5 179.5,148.5 180.5,148.5C 180.263,149.791 180.596,150.791 181.5,151.5C 181.785,153.288 181.452,154.955 180.5,156.5C 179.83,154.709 179.163,153.042 178.5,151.5C 178.167,151.5 177.833,151.5 177.5,151.5C 177.167,151.5 176.833,151.5 176.5,151.5C 174.603,150.195 172.269,149.529 169.5,149.5C 166.975,149.503 164.641,149.837 162.5,150.5C 161.167,150.5 159.833,150.5 158.5,150.5C 158.5,152.167 158.5,153.833 158.5,155.5C 157.527,153.052 157.194,150.385 157.5,147.5C 164.148,148.139 170.814,148.473 177.5,148.5 Z"/></g>
<g><path style="opacity:1" fill="#373b4f" d="M 176.5,151.5 C 175.082,153.308 173.082,153.975 170.5,153.5C 167.833,153.5 165.167,153.5 162.5,153.5C 162.5,152.5 162.5,151.5 162.5,150.5C 164.641,149.837 166.975,149.503 169.5,149.5C 172.269,149.529 174.603,150.195 176.5,151.5 Z"/></g>
<g><path style="opacity:1" fill="#d0edfb" d="M 262.5,152.5 C 261.681,149.695 261.181,146.695 261,143.5C 260,142.167 259,140.833 258,139.5C 257.692,140.308 257.192,140.975 256.5,141.5C 254.375,136.999 255.541,133.999 260,132.5C 261.505,128.513 261.672,124.513 260.5,120.5C 251.064,119.53 248.397,123.363 252.5,132C 251.367,136.811 250.034,141.477 248.5,146C 248.833,146.333 249.167,146.667 249.5,147C 248.207,147.49 246.873,147.657 245.5,147.5C 244.555,151.755 244.555,155.755 245.5,159.5C 237.736,160.602 229.903,161.268 222,161.5C 215.99,161.499 210.157,161.166 204.5,160.5C 205.5,160.5 206.5,160.5 207.5,160.5C 207.657,159.127 207.49,157.793 207,156.5C 206.308,157.025 205.808,157.692 205.5,158.5C 201.541,159.66 197.541,159.827 193.5,159C 195.459,158.069 197.459,157.236 199.5,156.5C 200.429,155.311 200.762,153.978 200.5,152.5C 198.4,152.477 196.567,153.144 195,154.5C 193.941,154.37 193.108,153.87 192.5,153C 193.5,152 194.5,151 195.5,150C 198.828,150.833 200.161,149.333 199.5,145.5C 200.15,145.196 200.817,144.863 201.5,144.5C 202.5,145.833 203.5,147.167 204.5,148.5C 205.427,146.887 206.261,145.221 207,143.5C 209.244,144.954 211.577,146.288 214,147.5C 214.035,151.389 213.535,155.223 212.5,159C 216.505,160.098 220.005,159.265 223,156.5C 228.752,157.148 234.585,157.148 240.5,156.5C 241.395,144.193 241.728,131.859 241.5,119.5C 248.5,119.5 255.5,119.5 262.5,119.5C 262.5,130.5 262.5,141.5 262.5,152.5 Z"/></g>
<g><path style="opacity:1" fill="#4fa8d1" d="M 138.5,143.5 C 138.335,146.85 138.502,150.183 139,153.5C 141.552,151.98 143.718,152.313 145.5,154.5C 143.326,154.75 141.659,155.75 140.5,157.5C 138.983,157.489 137.816,156.823 137,155.5C 136.088,151.194 136.588,147.194 138.5,143.5 Z"/></g>
<g><path style="opacity:1" fill="#f9f9f7" d="M 162.5,150.5 C 162.5,151.5 162.5,152.5 162.5,153.5C 165.167,153.5 167.833,153.5 170.5,153.5C 172.607,154.468 174.941,154.802 177.5,154.5C 177.5,153.5 177.5,152.5 177.5,151.5C 177.833,151.5 178.167,151.5 178.5,151.5C 178.917,154.079 178.25,156.246 176.5,158C 170.363,158.73 164.363,158.23 158.5,156.5C 158.5,156.167 158.5,155.833 158.5,155.5C 158.5,153.833 158.5,152.167 158.5,150.5C 159.833,150.5 161.167,150.5 162.5,150.5 Z"/></g>
<g><path style="opacity:1" fill="#b4b4b8" d="M 176.5,151.5 C 176.833,151.5 177.167,151.5 177.5,151.5C 177.5,152.5 177.5,153.5 177.5,154.5C 174.941,154.802 172.607,154.468 170.5,153.5C 173.082,153.975 175.082,153.308 176.5,151.5 Z"/></g>
<g><path style="opacity:1" fill="#d7c4d7" d="M 145.5,154.5 C 147.379,155.341 149.379,155.675 151.5,155.5C 151.5,156.167 151.5,156.833 151.5,157.5C 148.518,157.037 145.518,156.704 142.5,156.5C 143.159,159.455 143.492,162.455 143.5,165.5C 142.007,163.098 141.007,160.431 140.5,157.5C 141.659,155.75 143.326,154.75 145.5,154.5 Z"/></g>
<g><path style="opacity:1" fill="#f7bdbd" d="M 148.5,168.5 C 147.5,168.5 146.5,168.5 145.5,168.5C 144.094,168.027 143.427,167.027 143.5,165.5C 143.492,162.455 143.159,159.455 142.5,156.5C 145.518,156.704 148.518,157.037 151.5,157.5C 161.961,159.035 172.628,159.701 183.5,159.5C 183.5,157.167 183.5,154.833 183.5,152.5C 185.167,152.5 186.833,152.5 188.5,152.5C 188.665,155.85 188.498,159.183 188,162.5C 184.886,165.306 181.386,167.473 177.5,169C 167.826,169.426 158.16,169.259 148.5,168.5 Z"/></g>
<g><path style="opacity:1" fill="#d5f1f6" d="M 199.5,145.5 C 200.161,149.333 198.828,150.833 195.5,150C 194.5,151 193.5,152 192.5,153C 193.108,153.87 193.941,154.37 195,154.5C 196.567,153.144 198.4,152.477 200.5,152.5C 200.762,153.978 200.429,155.311 199.5,156.5C 197.459,157.236 195.459,158.069 193.5,159C 197.541,159.827 201.541,159.66 205.5,158.5C 205.808,157.692 206.308,157.025 207,156.5C 207.49,157.793 207.657,159.127 207.5,160.5C 206.5,160.5 205.5,160.5 204.5,160.5C 200.158,160.739 195.824,161.073 191.5,161.5C 191.5,162.5 191.5,163.5 191.5,164.5C 214.5,164.5 237.5,164.5 260.5,164.5C 260.077,162.219 260.744,160.552 262.5,159.5C 262.5,161.5 262.5,163.5 262.5,165.5C 262.5,166.167 262.5,166.833 262.5,167.5C 262.5,170.167 262.5,172.833 262.5,175.5C 260.974,174.895 259.974,173.729 259.5,172C 258.062,171.781 256.729,171.281 255.5,170.5C 232.689,169.889 210.022,168.889 187.5,167.5C 188.209,166.596 189.209,166.263 190.5,166.5C 191.415,161.461 191.415,156.461 190.5,151.5C 191.167,151.5 191.5,151.167 191.5,150.5C 194.503,149.83 195.17,148.163 193.5,145.5C 195.882,146.48 197.882,146.48 199.5,145.5 Z"/></g>
<g><path style="opacity:1" fill="#e3d1da" d="M 190.5,151.5 C 191.415,156.461 191.415,161.461 190.5,166.5C 189.209,166.263 188.209,166.596 187.5,167.5C 184.572,167.565 181.905,168.232 179.5,169.5C 178.833,169.5 178.5,169.833 178.5,170.5C 178.167,170.5 177.833,170.5 177.5,170.5C 171.491,170.334 165.491,170.501 159.5,171C 158.956,171.717 158.289,172.217 157.5,172.5C 157.179,170.952 156.179,170.285 154.5,170.5C 152.735,169.539 150.735,169.205 148.5,169.5C 148.5,169.167 148.5,168.833 148.5,168.5C 158.16,169.259 167.826,169.426 177.5,169C 181.386,167.473 184.886,165.306 188,162.5C 188.498,159.183 188.665,155.85 188.5,152.5C 186.833,152.5 185.167,152.5 183.5,152.5C 183.5,154.833 183.5,157.167 183.5,159.5C 172.628,159.701 161.961,159.035 151.5,157.5C 153.861,157.326 156.194,156.993 158.5,156.5C 164.363,158.23 170.363,158.73 176.5,158C 178.25,156.246 178.917,154.079 178.5,151.5C 179.163,153.042 179.83,154.709 180.5,156.5C 181.452,154.955 181.785,153.288 181.5,151.5C 184.523,150.322 187.523,150.322 190.5,151.5 Z"/></g>
<g><path style="opacity:1" fill="#daf0f7" d="M 399.5,146.5 C 403.5,158.833 403.5,171.167 399.5,183.5C 400.019,178.758 400.019,174.091 399.5,169.5C 394.167,169.5 388.833,169.5 383.5,169.5C 383.03,183.836 382.863,198.169 383,212.5C 383.667,211.167 384.667,210.167 386,209.5C 386.333,207.5 386.667,205.5 387,203.5C 387.5,202.333 388.333,201.5 389.5,201C 388.572,200.612 387.905,199.945 387.5,199C 389.919,197.515 392.085,195.681 394,193.5C 394.165,189.452 395.998,186.785 399.5,185.5C 396.377,192.25 393.377,199.083 390.5,206C 388.349,209.318 385.683,212.151 382.5,214.5C 381.503,206.862 381.169,199.196 381.5,191.5C 382.365,183.534 382.698,175.534 382.5,167.5C 388.842,167.666 395.175,167.5 401.5,167C 395.084,167.129 389.084,166.295 383.5,164.5C 388.833,164.5 394.167,164.5 399.5,164.5C 399.5,158.5 399.5,152.5 399.5,146.5 Z"/></g>
<g><path style="opacity:1" fill="#e3f7fc" d="M 373.5,207.5 C 372.672,201.013 372.172,194.346 372,187.5C 371.308,186.975 370.808,186.308 370.5,185.5C 364.202,184.504 357.868,184.17 351.5,184.5C 351.5,179.5 351.5,174.5 351.5,169.5C 346.901,169.8 342.401,169.467 338,168.5C 336.532,169.989 335.032,171.323 333.5,172.5C 333.286,170.856 333.62,169.356 334.5,168C 347.123,168.087 359.79,168.087 372.5,168C 373.489,181.087 373.823,194.254 373.5,207.5 Z"/></g>
<g><path style="opacity:1" fill="#def7f6" d="M 66.5,159.5 C 66.8333,159.5 67.1667,159.5 67.5,159.5C 67.2596,167.875 67.5929,176.208 68.5,184.5C 72.938,184.848 75.2714,182.848 75.5,178.5C 76.562,180.099 76.562,181.766 75.5,183.5C 73.6505,185.572 71.3171,186.905 68.5,187.5C 66.549,187.227 65.049,187.893 64,189.5C 63.8333,189 63.6667,188.5 63.5,188C 64.2961,186.908 64.9628,185.741 65.5,184.5C 65.8156,179.202 65.8156,173.869 65.5,168.5C 55.8805,167.692 46.2138,167.192 36.5,167C 45.7164,165.598 54.8831,165.431 64,166.5C 65.8921,165.383 66.7254,163.716 66.5,161.5C 66.5,160.833 66.5,160.167 66.5,159.5 Z"/></g>
<g><path style="opacity:1" fill="#cdedfc" d="M 75.5,167.5 C 82.8409,167.334 90.1742,167.5 97.5,168C 98.2529,169.487 99.0862,169.654 100,168.5C 101.622,179.736 101.955,191.069 101,202.5C 100.634,204.452 99.8005,206.118 98.5,207.5C 90.8333,207.5 83.1667,207.5 75.5,207.5C 75.8076,205.076 75.4742,202.743 74.5,200.5C 73.0949,202.907 71.0949,204.574 68.5,205.5C 72.4827,200.879 75.9827,195.879 79,190.5C 79.4966,188.19 79.6633,185.857 79.5,183.5C 78.1667,183.5 76.8333,183.5 75.5,183.5C 76.562,181.766 76.562,180.099 75.5,178.5C 75.5,174.833 75.5,171.167 75.5,167.5 Z"/></g>
<g><path style="opacity:1" fill="#f7f7f6" d="M 177.5,170.5 C 177.5,174.5 177.5,178.5 177.5,182.5C 170.857,181.788 164.191,181.454 157.5,181.5C 157.5,178.5 157.5,175.5 157.5,172.5C 158.289,172.217 158.956,171.717 159.5,171C 165.491,170.501 171.491,170.334 177.5,170.5 Z"/></g>
<g><path style="opacity:1" fill="#23a8e8" d="M 148.5,169.5 C 150.735,169.205 152.735,169.539 154.5,170.5C 154.5,171.167 154.833,171.5 155.5,171.5C 155.5,175.5 155.5,179.5 155.5,183.5C 153.777,181.22 153.111,178.553 153.5,175.5C 151.833,175.5 150.167,175.5 148.5,175.5C 148.771,177.38 148.104,178.713 146.5,179.5C 145.931,175.671 146.598,172.337 148.5,169.5 Z"/></g>
<g><path style="opacity:1" fill="#4d6e93" d="M 177.5,170.5 C 177.833,170.5 178.167,170.5 178.5,170.5C 179.483,174.298 179.817,178.298 179.5,182.5C 179.672,183.492 179.338,184.158 178.5,184.5C 178.672,183.508 178.338,182.842 177.5,182.5C 177.5,178.5 177.5,174.5 177.5,170.5 Z"/></g>
<g><path style="opacity:1" fill="#33a9dd" d="M 178.5,170.5 C 178.5,169.833 178.833,169.5 179.5,169.5C 180.5,169.5 181.5,169.5 182.5,169.5C 182.958,179.161 183.291,188.828 183.5,198.5C 182.366,207.052 180.366,215.385 177.5,223.5C 180.082,210.265 181.582,196.931 182,183.5C 181.329,182.748 180.496,182.414 179.5,182.5C 179.817,178.298 179.483,174.298 178.5,170.5 Z"/></g>
<g><path style="opacity:1" fill="#499ec6" d="M 35.5,179.5 C 34.213,180.768 33.213,180.435 32.5,178.5C 31.5713,179.689 31.238,181.022 31.5,182.5C 29.2591,181.7 28.2591,180.034 28.5,177.5C 30.5273,177.338 32.5273,177.505 34.5,178C 35.056,178.383 35.3893,178.883 35.5,179.5 Z"/></g>
<g><path style="opacity:1" fill="#7e8ea4" d="M 154.5,170.5 C 156.179,170.285 157.179,170.952 157.5,172.5C 157.5,175.5 157.5,178.5 157.5,181.5C 156.833,178.167 156.167,174.833 155.5,171.5C 154.833,171.5 154.5,171.167 154.5,170.5 Z"/></g>
<g><path style="opacity:1" fill="#cef3f8" d="M 307.5,124.5 C 309.256,125.552 309.923,127.219 309.5,129.5C 310.576,153.757 310.409,178.09 309,202.5C 307.883,203.949 307.216,205.616 307,207.5C 306.082,200.028 305.249,192.694 304.5,185.5C 304.5,184.833 304.5,184.167 304.5,183.5C 305.068,176.947 304.401,170.613 302.5,164.5C 303.464,157.558 303.797,150.558 303.5,143.5C 304.617,148.973 305.283,154.64 305.5,160.5C 305.702,172.843 306.202,185.176 307,197.5C 309.961,184.71 310.128,172.043 307.5,159.5C 307.5,147.833 307.5,136.167 307.5,124.5 Z"/></g>
<g><path style="opacity:1" fill="#4aaed0" d="M 307.5,159.5 C 310.128,172.043 309.961,184.71 307,197.5C 306.202,185.176 305.702,172.843 305.5,160.5C 306.302,161.952 306.802,163.618 307,165.5C 307.495,163.527 307.662,161.527 307.5,159.5 Z"/></g>
<g><path style="opacity:1" fill="#2e4d70" d="M 155.5,171.5 C 156.167,174.833 156.833,178.167 157.5,181.5C 164.191,181.454 170.857,181.788 177.5,182.5C 178.338,182.842 178.672,183.508 178.5,184.5C 170.821,184.404 163.154,184.07 155.5,183.5C 155.5,179.5 155.5,175.5 155.5,171.5 Z"/></g>
<g><path style="opacity:1" fill="#cfeefc" d="M 399.5,183.5 C 399.5,184.167 399.5,184.833 399.5,185.5C 395.998,186.785 394.165,189.452 394,193.5C 392.085,195.681 389.919,197.515 387.5,199C 387.905,199.945 388.572,200.612 389.5,201C 388.333,201.5 387.5,202.333 387,203.5C 386.667,205.5 386.333,207.5 386,209.5C 384.667,210.167 383.667,211.167 383,212.5C 382.863,198.169 383.03,183.836 383.5,169.5C 388.833,169.5 394.167,169.5 399.5,169.5C 400.019,174.091 400.019,178.758 399.5,183.5 Z"/></g>
<g><path style="opacity:1" fill="#f2e3e9" d="M 289.5,183.5 C 293.002,183.389 296.002,184.556 298.5,187C 297.827,189.929 295.994,191.429 293,191.5C 290.64,190.22 288.14,189.553 285.5,189.5C 285.714,187.856 285.38,186.356 284.5,185C 286.382,184.802 288.048,184.302 289.5,183.5 Z"/></g>
<g><path style="opacity:1" fill="#848281" d="M 304.5,183.5 C 304.5,184.167 304.5,184.833 304.5,185.5C 301.833,184.833 301.833,184.167 304.5,183.5 Z"/></g>
<g><path style="opacity:1" fill="#b88191" d="M 325.5,185.5 C 324.833,187.167 324.167,188.833 323.5,190.5C 322.542,190.953 321.708,191.619 321,192.5C 320.502,189.183 320.335,185.85 320.5,182.5C 322.933,182.273 324.599,183.273 325.5,185.5 Z"/></g>
<g><path style="opacity:1" fill="#1da1e4" d="M 35.5,179.5 C 40.8372,180.172 44.8372,182.839 47.5,187.5C 47.5106,189.017 48.1772,190.184 49.5,191C 45.8214,190.852 42.1548,190.352 38.5,189.5C 35.9066,188.246 33.5732,186.58 31.5,184.5C 31.5,183.833 31.5,183.167 31.5,182.5C 31.238,181.022 31.5713,179.689 32.5,178.5C 33.213,180.435 34.213,180.768 35.5,179.5 Z"/></g>
<g><path style="opacity:1" fill="#8b99a7" d="M 53.5,207.5 C 53.1667,207.5 52.8333,207.5 52.5,207.5C 52.6664,199.16 52.4997,190.827 52,182.5C 51.8309,195.34 51.3309,208.007 50.5,220.5C 50.5,219.833 50.5,219.167 50.5,218.5C 51.135,209.766 50.4684,201.433 48.5,193.5C 49.8062,192.533 50.4729,191.199 50.5,189.5C 50.5,186.833 50.5,184.167 50.5,181.5C 51.5,181.5 52.5,181.5 53.5,181.5C 53.5,190.167 53.5,198.833 53.5,207.5 Z"/></g>
<g><path style="opacity:1" fill="#ad808f" d="M 288.5,185.5 C 291.659,185.481 294.326,186.648 296.5,189C 293.196,188.959 289.863,188.626 286.5,188C 287.381,187.292 288.047,186.458 288.5,185.5 Z"/></g>
<g><path style="opacity:1" fill="#cdedfd" d="M 373.5,207.5 C 373.666,212.179 373.499,216.845 373,221.5C 372.283,222.044 371.783,222.711 371.5,223.5C 370.167,223.5 368.833,223.5 367.5,223.5C 364.039,222.889 361.372,224.056 359.5,227C 356.754,228.75 353.754,229.75 350.5,230C 348.545,230.953 346.878,232.287 345.5,234C 343.167,234.667 340.833,234.667 338.5,234C 337.167,233.333 337.167,232.667 338.5,232C 337.552,231.517 336.552,231.351 335.5,231.5C 335.66,233.199 335.494,234.866 335,236.5C 334.459,233.791 332.959,231.791 330.5,230.5C 328.678,230.463 326.678,230.796 324.5,231.5C 324.503,221.509 324.503,211.509 324.5,201.5C 324.756,196.946 325.756,192.612 327.5,188.5C 328.833,188.5 330.167,188.5 331.5,188.5C 331.153,183.921 331.82,179.588 333.5,175.5C 333.5,174.5 333.5,173.5 333.5,172.5C 335.032,171.323 336.532,169.989 338,168.5C 342.401,169.467 346.901,169.8 351.5,169.5C 351.5,174.5 351.5,179.5 351.5,184.5C 357.868,184.17 364.202,184.504 370.5,185.5C 370.808,186.308 371.308,186.975 372,187.5C 372.172,194.346 372.672,201.013 373.5,207.5 Z"/></g>
<g><path style="opacity:1" fill="#3ba3c9" d="M 47.5,187.5 C 48.5,188.167 49.5,188.833 50.5,189.5C 50.4729,191.199 49.8062,192.533 48.5,193.5C 44.6684,193.118 41.335,191.785 38.5,189.5C 42.1548,190.352 45.8214,190.852 49.5,191C 48.1772,190.184 47.5106,189.017 47.5,187.5 Z"/></g>
<g><path style="opacity:1" fill="#ccedfd" d="M 187.5,167.5 C 210.022,168.889 232.689,169.889 255.5,170.5C 256.729,171.281 258.062,171.781 259.5,172C 259.974,173.729 260.974,174.895 262.5,175.5C 262.5,199.5 262.5,223.5 262.5,247.5C 258.818,247.665 255.152,247.499 251.5,247C 249.103,245.282 246.436,244.115 243.5,243.5C 236.719,242.389 230.052,241.056 223.5,239.5C 214.47,236.879 205.47,234.046 196.5,231C 193.142,228.436 189.475,226.436 185.5,225C 184.887,222.853 184.221,220.686 183.5,218.5C 182.817,218.863 182.15,219.196 181.5,219.5C 184.535,209.104 185.701,198.438 185,187.5C 184.823,191.356 184.323,195.023 183.5,198.5C 183.291,188.828 182.958,179.161 182.5,169.5C 181.5,169.5 180.5,169.5 179.5,169.5C 181.905,168.232 184.572,167.565 187.5,167.5 Z"/></g>
<g><path style="opacity:1" fill="#2ba8de" d="M 75.5,183.5 C 76.8333,183.5 78.1667,183.5 79.5,183.5C 79.6633,185.857 79.4966,188.19 79,190.5C 75.9827,195.879 72.4827,200.879 68.5,205.5C 65.0836,207.907 61.4169,209.907 57.5,211.5C 57.5569,210.391 57.8902,209.391 58.5,208.5C 59.209,207.596 60.209,207.263 61.5,207.5C 61.5,206.167 61.5,204.833 61.5,203.5C 65.4147,202.182 69.0813,200.349 72.5,198C 70.9895,195.991 69.3229,194.158 67.5,192.5C 68.1667,192.167 68.8333,191.833 69.5,191.5C 71.0356,192.249 72.3689,193.249 73.5,194.5C 74.731,193.349 74.731,192.183 73.5,191C 74.8333,189.667 76.1667,188.333 77.5,187C 74.7698,188.122 71.7698,188.622 68.5,188.5C 68.5,188.167 68.5,187.833 68.5,187.5C 71.3171,186.905 73.6505,185.572 75.5,183.5 Z"/></g>
<g><path style="opacity:1" fill="#d0edf9" d="M 283.5,239.5 C 281.883,240.589 281.05,242.256 281,244.5C 280.501,248.152 280.335,251.818 280.5,255.5C 280.167,255.5 279.833,255.5 279.5,255.5C 279.665,251.818 279.499,248.152 279,244.5C 278.424,247.124 277.09,247.791 275,246.5C 274.311,247.357 273.478,248.023 272.5,248.5C 271.334,228.175 271.167,207.842 272,187.5C 273.188,188.563 273.688,189.897 273.5,191.5C 275.582,191.472 277.416,192.139 279,193.5C 281.02,208.087 282.02,222.754 282,237.5C 282.717,238.044 283.217,238.711 283.5,239.5 Z"/></g>
<g><path style="opacity:1" fill="#06aefa" d="M 155.5,183.5 C 155.611,184.117 155.944,184.617 156.5,185C 164.012,185.822 171.345,185.655 178.5,184.5C 179.338,184.158 179.672,183.492 179.5,182.5C 180.496,182.414 181.329,182.748 182,183.5C 181.582,196.931 180.082,210.265 177.5,223.5C 177.276,227.179 176.942,230.846 176.5,234.5C 175.504,248.99 175.171,263.657 175.5,278.5C 175.672,279.492 175.338,280.158 174.5,280.5C 169.5,280.5 164.5,280.5 159.5,280.5C 159.5,272.167 159.5,263.833 159.5,255.5C 161.117,254.411 161.95,252.744 162,250.5C 162.823,242.323 162.656,234.323 161.5,226.5C 161.719,225.325 161.386,224.325 160.5,223.5C 159.702,223.957 159.369,224.624 159.5,225.5C 159.5,226.167 159.5,226.833 159.5,227.5C 158.25,227.577 157.417,228.244 157,229.5C 156.562,246.955 156.395,264.288 156.5,281.5C 153.864,281.964 151.197,282.297 148.5,282.5C 146.36,282.444 144.694,281.777 143.5,280.5C 142.55,270.552 142.216,260.552 142.5,250.5C 143.244,246.881 143.577,243.215 143.5,239.5C 144.332,220.338 144.832,201.004 145,181.5C 145.278,180.584 145.778,179.918 146.5,179.5C 148.104,178.713 148.771,177.38 148.5,175.5C 150.167,175.5 151.833,175.5 153.5,175.5C 153.111,178.553 153.777,181.22 155.5,183.5 Z"/></g>
<g><path style="opacity:1" fill="#1f95d0" d="M 155.5,183.5 C 163.154,184.07 170.821,184.404 178.5,184.5C 171.345,185.655 164.012,185.822 156.5,185C 155.944,184.617 155.611,184.117 155.5,183.5 Z"/></g>
<g><path style="opacity:1" fill="#2fa9dd" d="M 34.5,199.5 C 34.5,199.833 34.5,200.167 34.5,200.5C 32.1667,200.5 29.8333,200.5 27.5,200.5C 26.9102,196.08 24.9102,195.414 21.5,198.5C 19.0554,196.722 16.3888,195.389 13.5,194.5C 12.8333,194.833 12.1667,195.167 11.5,195.5C 13.3929,197.952 14.7263,200.619 15.5,203.5C 11.723,200.129 9.05635,195.962 7.5,191C 17.1449,191.473 26.1449,194.306 34.5,199.5 Z"/></g>
<g><path style="opacity:1" fill="#e8f7fa" d="M 291.5,241.5 C 288.659,241.44 285.993,240.774 283.5,239.5C 283.217,238.711 282.717,238.044 282,237.5C 282.02,222.754 281.02,208.087 279,193.5C 277.416,192.139 275.582,191.472 273.5,191.5C 273.688,189.897 273.188,188.563 272,187.5C 271.167,207.842 271.334,228.175 272.5,248.5C 273.478,248.023 274.311,247.357 275,246.5C 277.09,247.791 278.424,247.124 279,244.5C 279.499,248.152 279.665,251.818 279.5,255.5C 279.5,258.833 279.5,262.167 279.5,265.5C 278.213,264.129 277.547,262.295 277.5,260C 277.744,256.814 278.077,253.647 278.5,250.5C 275.881,250.768 273.381,250.435 271,249.5C 270.333,228.167 270.333,206.833 271,185.5C 273.907,186.244 276.073,187.91 277.5,190.5C 279.323,189.253 281.323,188.586 283.5,188.5C 281.791,194.328 281.124,200.328 281.5,206.5C 286.181,206.331 290.848,205.998 295.5,205.5C 295.34,203.801 295.506,202.134 296,200.5C 296.758,202.769 296.591,204.936 295.5,207C 291.179,207.499 286.846,207.666 282.5,207.5C 282.168,216.525 282.502,225.525 283.5,234.5C 284.086,234.291 284.586,233.957 285,233.5C 285.346,235.218 285.846,236.885 286.5,238.5C 288.544,239.065 290.21,240.065 291.5,241.5 Z"/></g>
<g><path style="opacity:1" fill="#a3eaf4" d="M 34.5,200.5 C 34.5,200.167 34.5,199.833 34.5,199.5C 36.7488,200.08 38.4154,201.413 39.5,203.5C 37.5887,202.925 35.922,201.925 34.5,200.5 Z"/></g>
<g><path style="opacity:1" fill="#0fa6ef" d="M 58.5,208.5 C 57.391,208.557 56.391,208.89 55.5,209.5C 56.8889,206.721 57.7222,203.721 58,200.5C 60.3578,197.778 62.1911,194.778 63.5,191.5C 65.0009,190.248 66.6675,189.248 68.5,188.5C 71.7698,188.622 74.7698,188.122 77.5,187C 76.1667,188.333 74.8333,189.667 73.5,191C 74.731,192.183 74.731,193.349 73.5,194.5C 72.3689,193.249 71.0356,192.249 69.5,191.5C 68.8333,191.833 68.1667,192.167 67.5,192.5C 69.3229,194.158 70.9895,195.991 72.5,198C 69.0813,200.349 65.4147,202.182 61.5,203.5C 61.5,204.833 61.5,206.167 61.5,207.5C 60.209,207.263 59.209,207.596 58.5,208.5 Z"/></g>
<g><path style="opacity:1" fill="#3d4d54" d="M 52.5,207.5 C 52.5,209.5 52.5,211.5 52.5,213.5C 52.5,216.833 52.5,220.167 52.5,223.5C 52.1667,223.5 51.8333,223.5 51.5,223.5C 50.8333,223.5 50.5,223.167 50.5,222.5C 50.5,221.833 50.5,221.167 50.5,220.5C 51.3309,208.007 51.8309,195.34 52,182.5C 52.4997,190.827 52.6664,199.16 52.5,207.5 Z"/></g>
<g><path style="opacity:1" fill="#3fb4e0" d="M 63.5,191.5 C 62.1911,194.778 60.3578,197.778 58,200.5C 57.7222,203.721 56.8889,206.721 55.5,209.5C 55.44,210.043 55.1067,210.376 54.5,210.5C 53.6143,209.675 53.281,208.675 53.5,207.5C 55.573,201.417 58.9063,196.084 63.5,191.5 Z"/></g>
<g><path style="opacity:1" fill="#dcfafa" d="M 143.5,180.5 C 143.5,200.167 143.5,219.833 143.5,239.5C 143.577,243.215 143.244,246.881 142.5,250.5C 141.507,259.318 141.173,268.318 141.5,277.5C 141.167,277.5 140.833,277.5 140.5,277.5C 141.457,250.814 141.457,224.147 140.5,197.5C 139.789,192.291 139.956,186.957 141,181.5C 141.671,180.748 142.504,180.414 143.5,180.5 Z"/></g>
<g><path style="opacity:1" fill="#52c5f1" d="M 145.5,168.5 C 146.5,168.5 147.5,168.5 148.5,168.5C 148.5,168.833 148.5,169.167 148.5,169.5C 146.598,172.337 145.931,175.671 146.5,179.5C 145.778,179.918 145.278,180.584 145,181.5C 144.832,201.004 144.332,220.338 143.5,239.5C 143.5,219.833 143.5,200.167 143.5,180.5C 145.254,176.742 145.921,172.742 145.5,168.5 Z"/></g>
<g><path style="opacity:1" fill="#b1f0fb" d="M 181.5,219.5 C 179.33,223.184 178.33,227.184 178.5,231.5C 177.507,240.318 177.173,249.318 177.5,258.5C 176.508,250.684 176.174,242.684 176.5,234.5C 176.942,230.846 177.276,227.179 177.5,223.5C 180.366,215.385 182.366,207.052 183.5,198.5C 184.323,195.023 184.823,191.356 185,187.5C 185.701,198.438 184.535,209.104 181.5,219.5 Z"/></g>
<g><path style="opacity:1" fill="#378cb1" d="M 52.5,207.5 C 52.8333,207.5 53.1667,207.5 53.5,207.5C 53.281,208.675 53.6143,209.675 54.5,210.5C 55.1067,210.376 55.44,210.043 55.5,209.5C 56.391,208.89 57.391,208.557 58.5,208.5C 57.8902,209.391 57.5569,210.391 57.5,211.5C 55.847,211.66 54.5137,212.326 53.5,213.5C 53.1667,213.5 52.8333,213.5 52.5,213.5C 52.5,211.5 52.5,209.5 52.5,207.5 Z"/></g>
<g><path style="opacity:1" fill="#14a9ef" d="M 34.5,200.5 C 35.922,201.925 37.5887,202.925 39.5,203.5C 40.1667,204.5 40.8333,205.5 41.5,206.5C 42.0303,209.682 43.0303,212.682 44.5,215.5C 43.448,215.649 42.448,215.483 41.5,215C 39.5512,211.355 36.8845,210.688 33.5,213C 36.3553,213.949 38.6886,215.616 40.5,218C 36.766,218.14 33.0993,217.64 29.5,216.5C 23.531,213.53 18.8643,209.196 15.5,203.5C 14.7263,200.619 13.3929,197.952 11.5,195.5C 12.1667,195.167 12.8333,194.833 13.5,194.5C 16.3888,195.389 19.0554,196.722 21.5,198.5C 24.9102,195.414 26.9102,196.08 27.5,200.5C 29.8333,200.5 32.1667,200.5 34.5,200.5 Z"/></g>
<g><path style="opacity:1" fill="#e6f9f8" d="M 68.5,205.5 C 67.6993,207.042 67.366,208.708 67.5,210.5C 65.7988,210.966 64.2988,210.966 63,210.5C 62.5078,211.549 62.6744,212.549 63.5,213.5C 62.8333,213.833 62.1667,214.167 61.5,214.5C 59.7422,213.554 58.0755,213.554 56.5,214.5C 57.2458,215.736 57.5792,217.07 57.5,218.5C 56.1667,218.5 54.8333,218.5 53.5,218.5C 53.5,216.833 53.5,215.167 53.5,213.5C 54.5137,212.326 55.847,211.66 57.5,211.5C 61.4169,209.907 65.0836,207.907 68.5,205.5 Z"/></g>
<g><path style="opacity:1" fill="#36a7dd" d="M 41.5,206.5 C 44.9866,210.142 47.9866,214.142 50.5,218.5C 50.5,219.167 50.5,219.833 50.5,220.5C 50.5,221.167 50.5,221.833 50.5,222.5C 42.8324,222.496 35.8324,220.496 29.5,216.5C 33.0993,217.64 36.766,218.14 40.5,218C 38.6886,215.616 36.3553,213.949 33.5,213C 36.8845,210.688 39.5512,211.355 41.5,215C 42.448,215.483 43.448,215.649 44.5,215.5C 43.0303,212.682 42.0303,209.682 41.5,206.5 Z"/></g>
<g><path style="opacity:1" fill="#c0c1c6" d="M 52.5,213.5 C 52.8333,213.5 53.1667,213.5 53.5,213.5C 53.5,215.167 53.5,216.833 53.5,218.5C 53.5,220.833 53.5,223.167 53.5,225.5C 57.3714,225.185 61.0381,225.518 64.5,226.5C 60.5,226.5 56.5,226.5 52.5,226.5C 52.5,225.5 52.5,224.5 52.5,223.5C 52.5,220.167 52.5,216.833 52.5,213.5 Z"/></g>
<g><path style="opacity:1" fill="#d3eef9" d="M 332.5,175.5 C 332.833,175.5 333.167,175.5 333.5,175.5C 331.82,179.588 331.153,183.921 331.5,188.5C 330.167,188.5 328.833,188.5 327.5,188.5C 325.756,192.612 324.756,196.946 324.5,201.5C 324.503,211.509 324.503,221.509 324.5,231.5C 326.678,230.796 328.678,230.463 330.5,230.5C 332.959,231.791 334.459,233.791 335,236.5C 335.494,234.866 335.66,233.199 335.5,231.5C 336.552,231.351 337.552,231.517 338.5,232C 337.167,232.667 337.167,233.333 338.5,234C 340.833,234.667 343.167,234.667 345.5,234C 346.878,232.287 348.545,230.953 350.5,230C 353.754,229.75 356.754,228.75 359.5,227C 361.372,224.056 364.039,222.889 367.5,223.5C 361.418,227.601 355.084,231.434 348.5,235C 345.441,235.058 343.108,236.391 341.5,239C 334.088,240.195 326.755,241.695 319.5,243.5C 319.5,248.5 319.5,253.5 319.5,258.5C 319.167,258.5 318.833,258.5 318.5,258.5C 318.5,252.833 318.5,247.167 318.5,241.5C 317.167,241.5 315.833,241.5 314.5,241.5C 316.218,240.776 318.052,240.109 320,239.5C 320.47,228.832 320.97,218.165 321.5,207.5C 321.617,201.793 322.617,196.293 324.5,191C 324.272,190.601 323.938,190.435 323.5,190.5C 324.167,188.833 324.833,187.167 325.5,185.5C 326.222,185.918 326.722,186.584 327,187.5C 329.119,183.598 330.952,179.598 332.5,175.5 Z"/></g>
<g><path style="opacity:1" fill="#403d53" d="M 51.5,223.5 C 51.8333,223.5 52.1667,223.5 52.5,223.5C 52.5,224.5 52.5,225.5 52.5,226.5C 56.5,226.5 60.5,226.5 64.5,226.5C 64.5,227.167 64.8333,227.5 65.5,227.5C 65.5,228.833 65.5,230.167 65.5,231.5C 56.0833,231.805 46.75,231.472 37.5,230.5C 37.33,229.178 37.6634,228.011 38.5,227C 42.8206,226.501 47.1539,226.334 51.5,226.5C 51.5,225.5 51.5,224.5 51.5,223.5 Z"/></g>
<g><path style="opacity:1" fill="#9a98ae" d="M 65.5,227.5 C 66.8333,230.5 66.8333,233.5 65.5,236.5C 61.3861,235.174 56.8861,234.507 52,234.5C 47.1139,234.507 42.6139,235.174 38.5,236.5C 37.5386,234.735 37.2053,232.735 37.5,230.5C 46.75,231.472 56.0833,231.805 65.5,231.5C 65.5,230.167 65.5,228.833 65.5,227.5 Z"/></g>
<g><path style="opacity:1" fill="#31b1e0" d="M 159.5,227.5 C 158.766,228.708 158.433,230.041 158.5,231.5C 157.339,245.327 157.173,259.327 158,273.5C 158.172,267.319 158.672,261.319 159.5,255.5C 159.5,263.833 159.5,272.167 159.5,280.5C 164.5,280.5 169.5,280.5 174.5,280.5C 168.69,281.49 162.69,281.823 156.5,281.5C 156.395,264.288 156.562,246.955 157,229.5C 157.417,228.244 158.25,227.577 159.5,227.5 Z"/></g>
<g><path style="opacity:1" fill="#616077" d="M 65.5,236.5 C 56.5,236.5 47.5,236.5 38.5,236.5C 42.6139,235.174 47.1139,234.507 52,234.5C 56.8861,234.507 61.3861,235.174 65.5,236.5 Z"/></g>
<g><path style="opacity:1" fill="#dbfdfe" d="M 159.5,225.5 C 160.078,231.987 160.078,238.653 159.5,245.5C 159.5,247.5 159.5,249.5 159.5,251.5C 158.509,245.021 158.176,238.354 158.5,231.5C 158.433,230.041 158.766,228.708 159.5,227.5C 159.5,226.833 159.5,226.167 159.5,225.5 Z"/></g>
<g><path style="opacity:1" fill="#a0a0b8" d="M 38.5,236.5 C 47.5,236.5 56.5,236.5 65.5,236.5C 65.5,237.167 65.5,237.833 65.5,238.5C 56.5,238.5 47.5,238.5 38.5,238.5C 38.5,237.833 38.5,237.167 38.5,236.5 Z"/></g>
<g><path style="opacity:1" fill="#8adef4" d="M 161.5,226.5 C 161.546,233.05 160.879,239.383 159.5,245.5C 160.078,238.653 160.078,231.987 159.5,225.5C 159.369,224.624 159.702,223.957 160.5,223.5C 161.386,224.325 161.719,225.325 161.5,226.5 Z"/></g>
<g><path style="opacity:1" fill="#58556e" d="M 38.5,238.5 C 47.5,238.5 56.5,238.5 65.5,238.5C 65.5,239.167 65.5,239.833 65.5,240.5C 56.5,240.5 47.5,240.5 38.5,240.5C 38.5,239.833 38.5,239.167 38.5,238.5 Z"/></g>
<g><path style="opacity:1" fill="#9692a8" d="M 38.5,240.5 C 47.5,240.5 56.5,240.5 65.5,240.5C 65.815,244.371 65.4816,248.038 64.5,251.5C 64.5,248.833 64.5,246.167 64.5,243.5C 56.1667,243.5 47.8333,243.5 39.5,243.5C 39.5,246.833 39.5,250.167 39.5,253.5C 38.5151,249.366 38.1818,245.032 38.5,240.5 Z"/></g>
<g><path style="opacity:1" fill="#90e8fa" d="M 158.5,231.5 C 158.176,238.354 158.509,245.021 159.5,251.5C 159.5,252.833 159.5,254.167 159.5,255.5C 158.672,261.319 158.172,267.319 158,273.5C 157.173,259.327 157.339,245.327 158.5,231.5 Z"/></g>
<g><path style="opacity:1" fill="#24a9e4" d="M 161.5,226.5 C 162.656,234.323 162.823,242.323 162,250.5C 161.95,252.744 161.117,254.411 159.5,255.5C 159.5,254.167 159.5,252.833 159.5,251.5C 159.5,249.5 159.5,247.5 159.5,245.5C 160.879,239.383 161.546,233.05 161.5,226.5 Z"/></g>
<g><path style="opacity:1" fill="#05aff9" d="M 281.5,276.5 C 282.451,275.081 282.784,273.415 282.5,271.5C 281.355,266.296 280.689,260.963 280.5,255.5C 282.177,251.455 282.844,247.122 282.5,242.5C 286.198,242.552 289.865,242.886 293.5,243.5C 293.666,251.174 293.5,258.841 293,266.5C 291.989,267.337 290.822,267.67 289.5,267.5C 289.152,271.578 289.819,275.412 291.5,279C 291.167,279.833 290.833,280.667 290.5,281.5C 287.242,282.417 283.909,282.751 280.5,282.5C 280.517,280.435 280.85,278.435 281.5,276.5 Z"/></g>
<g><path style="opacity:1" fill="#3e3a53" d="M 63.5,267.5 C 63.5,268.833 63.5,270.167 63.5,271.5C 62.1667,271.5 60.8333,271.5 59.5,271.5C 59.5191,273.06 59.8524,274.56 60.5,276C 60.0946,276.945 59.428,277.612 58.5,278C 59.8627,280.129 59.5294,280.629 57.5,279.5C 54.3404,281.027 51.007,281.693 47.5,281.5C 47.5,279.5 47.5,277.5 47.5,275.5C 44.9158,275.431 42.9158,274.265 41.5,272C 41.5932,265.264 41.7599,258.43 42,251.5C 43.7785,250.521 45.4452,250.854 47,252.5C 47.4966,250.19 47.6633,247.857 47.5,245.5C 52.8333,245.5 58.1667,245.5 63.5,245.5C 63.5,252.833 63.5,260.167 63.5,267.5 Z"/></g>
<g><path style="opacity:1" fill="#e8f8fb" d="M 262.5,167.5 C 263.498,194.005 263.998,220.672 264,247.5C 263.08,249.314 261.58,250.314 259.5,250.5C 252.9,248.979 246.233,247.979 239.5,247.5C 239.5,246.5 239.5,245.5 239.5,244.5C 236.09,244.543 232.757,244.043 229.5,243C 226.848,242.647 224.848,241.48 223.5,239.5C 230.052,241.056 236.719,242.389 243.5,243.5C 246.436,244.115 249.103,245.282 251.5,247C 255.152,247.499 258.818,247.665 262.5,247.5C 262.5,223.5 262.5,199.5 262.5,175.5C 262.5,172.833 262.5,170.167 262.5,167.5 Z"/></g>
<g><path style="opacity:1" fill="#09affa" d="M 318.5,258.5 C 318.833,258.5 319.167,258.5 319.5,258.5C 319.5,260.167 319.5,261.833 319.5,263.5C 319.5,265.167 319.5,266.833 319.5,268.5C 320.001,273.153 319.334,277.486 317.5,281.5C 314.833,281.5 312.167,281.5 309.5,281.5C 308.982,269.885 307.649,258.385 305.5,247C 306.093,245.118 307.427,244.118 309.5,244C 311.81,243.503 314.143,243.337 316.5,243.5C 316.161,250.574 316.661,257.574 318,264.5C 318.495,262.527 318.662,260.527 318.5,258.5 Z"/></g>
<g><path style="opacity:1" fill="#36aadb" d="M 283.5,239.5 C 285.993,240.774 288.659,241.44 291.5,241.5C 291.833,241.5 292.167,241.5 292.5,241.5C 293.209,242.404 294.209,242.737 295.5,242.5C 295.666,250.84 295.5,259.173 295,267.5C 293.702,269.265 292.536,271.099 291.5,273C 295.01,276.204 295.343,279.704 292.5,283.5C 289.634,283.718 286.634,283.885 283.5,284C 282.975,284.692 282.308,285.192 281.5,285.5C 280.112,283.891 279.112,282.058 278.5,280C 278.707,278.05 279.707,276.884 281.5,276.5C 280.85,278.435 280.517,280.435 280.5,282.5C 283.909,282.751 287.242,282.417 290.5,281.5C 290.833,280.667 291.167,279.833 291.5,279C 289.819,275.412 289.152,271.578 289.5,267.5C 290.822,267.67 291.989,267.337 293,266.5C 293.5,258.841 293.666,251.174 293.5,243.5C 289.865,242.886 286.198,242.552 282.5,242.5C 282.844,247.122 282.177,251.455 280.5,255.5C 280.335,251.818 280.501,248.152 281,244.5C 281.05,242.256 281.883,240.589 283.5,239.5 Z"/></g>
<g><path style="opacity:1" fill="#35a8d3" d="M 279.5,255.5 C 279.833,255.5 280.167,255.5 280.5,255.5C 280.689,260.963 281.355,266.296 282.5,271.5C 282.167,271.5 281.833,271.5 281.5,271.5C 281.741,269.102 281.074,267.102 279.5,265.5C 279.5,262.167 279.5,258.833 279.5,255.5 Z"/></g>
<g><path style="opacity:1" fill="#d0f7fb" d="M 304.5,257.5 C 305.983,265.643 306.983,273.977 307.5,282.5C 305.828,280.02 304.828,277.187 304.5,274C 305.233,268.531 305.233,263.031 304.5,257.5 Z"/></g>
<g><path style="opacity:1" fill="#60bce1" d="M 142.5,250.5 C 142.216,260.552 142.55,270.552 143.5,280.5C 142.833,280.167 142.167,279.833 141.5,279.5C 141.5,278.833 141.5,278.167 141.5,277.5C 141.173,268.318 141.507,259.318 142.5,250.5 Z"/></g>
<g><path style="opacity:1" fill="#48afd6" d="M 176.5,234.5 C 176.174,242.684 176.508,250.684 177.5,258.5C 177.5,264.833 177.5,271.167 177.5,277.5C 176.833,277.833 176.167,278.167 175.5,278.5C 175.171,263.657 175.504,248.99 176.5,234.5 Z"/></g>
<g><path style="opacity:1" fill="#434355" d="M 64.5,251.5 C 64.5,256.833 64.5,262.167 64.5,267.5C 64.1667,267.5 63.8333,267.5 63.5,267.5C 63.5,260.167 63.5,252.833 63.5,245.5C 58.1667,245.5 52.8333,245.5 47.5,245.5C 47.6633,247.857 47.4966,250.19 47,252.5C 45.4452,250.854 43.7785,250.521 42,251.5C 41.7599,258.43 41.5932,265.264 41.5,272C 42.9158,274.265 44.9158,275.431 47.5,275.5C 47.5,277.5 47.5,279.5 47.5,281.5C 51.007,281.693 54.3404,281.027 57.5,279.5C 59.5294,280.629 59.8627,280.129 58.5,278C 59.428,277.612 60.0946,276.945 60.5,276C 59.8524,274.56 59.5191,273.06 59.5,271.5C 60.8333,271.5 62.1667,271.5 63.5,271.5C 63.9292,275.257 63.2625,278.757 61.5,282C 55.6123,283.576 49.6123,283.909 43.5,283C 42.2986,282.097 41.4652,280.931 41,279.5C 40.8227,275.644 40.3227,271.977 39.5,268.5C 39.5,263.5 39.5,258.5 39.5,253.5C 39.5,250.167 39.5,246.833 39.5,243.5C 47.8333,243.5 56.1667,243.5 64.5,243.5C 64.5,246.167 64.5,248.833 64.5,251.5 Z"/></g>
<g><path style="opacity:1" fill="#cef5fd" d="M 292.5,241.5 C 296.557,241.848 300.557,242.514 304.5,243.5C 304.5,247.167 304.5,250.833 304.5,254.5C 303.532,252.393 303.198,250.059 303.5,247.5C 301.248,248.333 299.081,248.333 297,247.5C 296.667,254.833 296.333,262.167 296,269.5C 295.173,270.662 294.34,271.829 293.5,273C 295.391,275.899 295.891,279.066 295,282.5C 294.329,283.252 293.496,283.586 292.5,283.5C 295.343,279.704 295.01,276.204 291.5,273C 292.536,271.099 293.702,269.265 295,267.5C 295.5,259.173 295.666,250.84 295.5,242.5C 294.209,242.737 293.209,242.404 292.5,241.5 Z"/></g>
<g><path style="opacity:1" fill="#e3fcfd" d="M 319.5,263.5 C 320.458,263.953 321.292,264.619 322,265.5C 322.801,271.165 323.134,276.832 323,282.5C 321.921,284.394 320.587,284.727 319,283.5C 317.615,284.551 316.615,285.884 316,287.5C 313.867,285.862 311.367,285.029 308.5,285C 307.748,284.329 307.414,283.496 307.5,282.5C 310.408,283.569 313.408,283.736 316.5,283C 317.056,282.617 317.389,282.117 317.5,281.5C 318.833,281.5 320.167,281.5 321.5,281.5C 321.665,278.15 321.498,274.817 321,271.5C 320.768,270.263 320.268,269.263 319.5,268.5C 319.5,266.833 319.5,265.167 319.5,263.5 Z"/></g>
<g><path style="opacity:1" fill="#45afd9" d="M 314.5,241.5 C 315.833,241.5 317.167,241.5 318.5,241.5C 318.5,247.167 318.5,252.833 318.5,258.5C 318.662,260.527 318.495,262.527 318,264.5C 316.661,257.574 316.161,250.574 316.5,243.5C 314.143,243.337 311.81,243.503 309.5,244C 307.427,244.118 306.093,245.118 305.5,247C 307.649,258.385 308.982,269.885 309.5,281.5C 312.167,281.5 314.833,281.5 317.5,281.5C 317.389,282.117 317.056,282.617 316.5,283C 313.408,283.736 310.408,283.569 307.5,282.5C 306.983,273.977 305.983,265.643 304.5,257.5C 304.5,256.5 304.5,255.5 304.5,254.5C 304.5,250.833 304.5,247.167 304.5,243.5C 307.507,241.825 310.84,241.159 314.5,241.5 Z"/></g>
<g><path style="opacity:1" fill="#65b9d5" d="M 319.5,268.5 C 320.268,269.263 320.768,270.263 321,271.5C 321.498,274.817 321.665,278.15 321.5,281.5C 320.167,281.5 318.833,281.5 317.5,281.5C 319.334,277.486 320.001,273.153 319.5,268.5 Z"/></g>
<g><path style="opacity:1" fill="#e8f5fa" d="M 63.5,267.5 C 63.8333,267.5 64.1667,267.5 64.5,267.5C 64.5,271.167 64.5,274.833 64.5,278.5C 71.168,277.895 77.8347,278.562 84.5,280.5C 84.7564,282.792 84.4231,284.959 83.5,287C 62.8333,287.667 42.1667,287.667 21.5,287C 17.5,284.667 17.5,282.333 21.5,280C 27.4449,278.838 33.4449,278.338 39.5,278.5C 39.5,275.167 39.5,271.833 39.5,268.5C 40.3227,271.977 40.8227,275.644 41,279.5C 41.4652,280.931 42.2986,282.097 43.5,283C 49.6123,283.909 55.6123,283.576 61.5,282C 63.2625,278.757 63.9292,275.257 63.5,271.5C 63.5,270.167 63.5,268.833 63.5,267.5 Z"/></g>
<g><path style="opacity:1" fill="#ebf5f9" d="M 178.5,231.5 C 178.333,247.503 178.5,263.503 179,279.5C 179.833,280.5 180.667,281.5 181.5,282.5C 182.962,281.529 184.295,281.862 185.5,283.5C 184.289,284.72 184.289,285.887 185.5,287C 182.089,288.165 178.756,289.498 175.5,291C 158.435,291.982 141.435,291.482 124.5,289.5C 124.5,287.833 124.5,286.167 124.5,284.5C 126.792,284.244 128.959,284.577 131,285.5C 131.49,284.207 131.657,282.873 131.5,281.5C 134.5,281.5 137.5,281.5 140.5,281.5C 140.5,280.167 140.5,278.833 140.5,277.5C 140.833,277.5 141.167,277.5 141.5,277.5C 141.5,278.167 141.5,278.833 141.5,279.5C 141.231,281.429 141.731,283.095 143,284.5C 153.733,283.087 164.567,282.254 175.5,282C 177.037,280.89 177.703,279.39 177.5,277.5C 177.5,271.167 177.5,264.833 177.5,258.5C 177.173,249.318 177.507,240.318 178.5,231.5 Z"/></g>
<g><path style="opacity:1" fill="#c5f3fa" d="M 177.5,277.5 C 177.703,279.39 177.037,280.89 175.5,282C 164.567,282.254 153.733,283.087 143,284.5C 141.731,283.095 141.231,281.429 141.5,279.5C 142.167,279.833 142.833,280.167 143.5,280.5C 144.694,281.777 146.36,282.444 148.5,282.5C 151.197,282.297 153.864,281.964 156.5,281.5C 162.69,281.823 168.69,281.49 174.5,280.5C 175.338,280.158 175.672,279.492 175.5,278.5C 176.167,278.167 176.833,277.833 177.5,277.5 Z"/></g>
<g><path style="opacity:1" fill="#ddf5fa" d="M 281.5,271.5 C 281.833,271.5 282.167,271.5 282.5,271.5C 282.784,273.415 282.451,275.081 281.5,276.5C 279.707,276.884 278.707,278.05 278.5,280C 279.112,282.058 280.112,283.891 281.5,285.5C 282.308,285.192 282.975,284.692 283.5,284C 286.634,283.885 289.634,283.718 292.5,283.5C 290.342,285.22 287.675,286.053 284.5,286C 282.98,287.885 281.98,290.051 281.5,292.5C 279.353,293.835 277.353,293.669 275.5,292C 276.833,291 276.833,290 275.5,289C 276.793,288.51 278.127,288.343 279.5,288.5C 277.82,284.412 277.153,280.079 277.5,275.5C 278.833,275.5 280.167,275.5 281.5,275.5C 281.5,274.167 281.5,272.833 281.5,271.5 Z"/></g>
<g><path style="opacity:1" fill="#ebf4f9" d="M 296.5,285.5 C 298.156,286.146 299.823,286.813 301.5,287.5C 306.865,285.54 311.865,286.374 316.5,290C 320.871,290.828 325.205,290.661 329.5,289.5C 328.975,288.808 328.308,288.308 327.5,288C 331.893,286.825 335.226,287.992 337.5,291.5C 335.651,292.593 333.984,293.926 332.5,295.5C 331.914,295.291 331.414,294.957 331,294.5C 319.343,297.142 307.51,297.976 295.5,297C 292.123,295.961 291.457,294.461 293.5,292.5C 292.691,290.929 292.357,289.262 292.5,287.5C 294.38,287.771 295.713,287.104 296.5,285.5 Z"/></g>
</svg>
